# xmcd CD database file
#
# Track frame offsets:
#	150
#	49181
#	99308
#	140202
#
# Disc length: 2631 seconds
#
# Revision: 0
# Processed by: cddbd v1.5.2PL0 Copyright (c) Steve Scherf et al.
# Submitted via: CDex 1.70beta2
#
DISCID=340a4504
DTITLE=DUO MIYEON and PARK - DREAMS from the ANCESTOR
DYEAR=2008
DGENRE=Jazz
TTITLE0=그것을 꿈이라 말하지 말라 (A Dream I never Dreamed)
TTITLE1=이어도는 땅 위에 있다 (The Eternity of the Dream Island)
TTITLE2=잊혀진 나에게 묻는다 (What you Dream is What you are)
TTITLE3=새는 내 안에 있었다 (The Dream Forgotten)
EXTD=YEAR: 2008
EXTT0=
EXTT1=
EXTT2=
EXTT3=
PLAYORDER=
